<svg xmlns="http://www.w3.org/2000/svg" xmlns:xlink="http://www.w3.org/1999/xlink" width="500" zoomAndPan="magnify" viewBox="0 0 375 149.999998" height="200" preserveAspectRatio="xMidYMid meet" version="1.0"><defs><g/><clipPath id="931a3b35d8"><path d="M 46.371094 36.179688 L 328.363281 36.179688 L 328.363281 114.179688 L 46.371094 114.179688 Z M 46.371094 36.179688 " clip-rule="nonzero"/></clipPath><clipPath id="83844ead6f"><path d="M 53.980469 43.476562 L 187.320312 43.476562 L 187.320312 106.523438 L 53.980469 106.523438 Z M 53.980469 43.476562 " clip-rule="nonzero"/></clipPath></defs><g clip-path="url(#931a3b35d8)"><path stroke-linecap="butt" transform="matrix(0.750249, 0, 0, 0.753509, 46.370926, 36.180267)" fill="none" stroke-linejoin="miter" d="M 0.000223566 -0.000769399 L 375.864825 -0.000769399 L 375.864825 103.51487 L 0.000223566 103.51487 L 0.000223566 -0.000769399 " stroke="#c3073f" stroke-width="4" stroke-opacity="1" stroke-miterlimit="4"/></g><g clip-path="url(#83844ead6f)"><path fill="#c3073f" d="M 53.980469 43.476562 L 188.078125 43.476562 L 188.078125 107.171875 L 53.980469 107.171875 Z M 53.980469 43.476562 " fill-opacity="1" fill-rule="nonzero"/></g><g fill="#ffffff" fill-opacity="1"><g transform="translate(66.70858, 84.822814)"><g><path d="M 0.515625 0 L 3.359375 0 L 5.296875 -4.8125 L 15.613281 -4.8125 L 17.609375 0 L 20.425781 0 L 11.710938 -21.179688 L 9.230469 -21.179688 Z M 6.324219 -7.292969 L 10.46875 -17.457031 L 14.613281 -7.292969 Z M 6.324219 -7.292969 "/></g></g></g><g fill="#ffffff" fill-opacity="1"><g transform="translate(89.939665, 84.822814)"><g><path d="M 3.085938 0 L 5.71875 0 L 5.71875 -16.582031 L 17.429688 0 L 19.910156 0 L 19.910156 -21.179688 L 17.308594 -21.179688 L 17.308594 -4.597656 L 5.597656 -21.179688 L 3.085938 -21.179688 Z M 3.085938 0 "/></g></g></g><g fill="#ffffff" fill-opacity="1"><g transform="translate(115.227587, 84.822814)"><g><path d="M 3.085938 0 L 5.75 0 L 5.75 -21.179688 L 3.085938 -21.179688 Z M 3.085938 0 "/></g></g></g><g fill="#ffffff" fill-opacity="1"><g transform="translate(126.359634, 84.822814)"><g><path d="M 3.085938 0 L 5.75 0 L 5.75 -16.21875 L 12.769531 -5.628906 L 14.949219 -5.628906 L 21.96875 -16.1875 L 21.96875 0 L 24.628906 0 L 24.628906 -21.179688 L 22.148438 -21.179688 L 13.886719 -8.625 L 5.566406 -21.179688 L 3.085938 -21.179688 Z M 3.085938 0 "/></g></g></g><g fill="#ffffff" fill-opacity="1"><g transform="translate(156.366181, 84.822814)"><g><path d="M 3.085938 0 L 16.277344 0 L 16.277344 -2.480469 L 5.75 -2.480469 L 5.75 -9.5625 L 15.1875 -9.5625 L 15.1875 -12.011719 L 5.75 -12.011719 L 5.75 -18.699219 L 15.945312 -18.699219 L 15.945312 -21.179688 L 3.085938 -21.179688 Z M 3.085938 0 "/></g></g></g><g fill="#ffffff" fill-opacity="1"><g transform="translate(198.441965, 84.822814)"><g><path d="M 12.558594 0.453125 C 19.304688 0.453125 24.085938 -4.113281 24.085938 -10.589844 C 24.085938 -17.066406 19.304688 -21.632812 12.558594 -21.632812 C 5.808594 -21.632812 1.027344 -17.066406 1.027344 -10.589844 C 1.027344 -4.113281 5.808594 0.453125 12.558594 0.453125 Z M 7.230469 -10.589844 C 7.230469 -13.765625 9.441406 -15.976562 12.558594 -15.976562 C 15.703125 -15.976562 17.882812 -13.765625 17.882812 -10.589844 C 17.882812 -7.414062 15.703125 -5.203125 12.558594 -5.203125 C 9.441406 -5.203125 7.230469 -7.414062 7.230469 -10.589844 Z M 7.230469 -10.589844 "/></g></g></g><g fill="#ffffff" fill-opacity="1"><g transform="translate(223.577724, 84.822814)"><g><path d="M 2.238281 0 L 8.289062 0 L 8.289062 -10.800781 L 16.339844 0 L 21.300781 0 L 21.300781 -21.179688 L 15.28125 -21.179688 L 15.28125 -10.4375 L 7.230469 -21.179688 L 2.238281 -21.179688 Z M 2.238281 0 "/></g></g></g><g fill="#ffffff" fill-opacity="1"><g transform="translate(247.140609, 84.822814)"><g><path d="M 2.238281 0 L 17.003906 0 L 17.003906 -5.65625 L 8.351562 -5.65625 L 8.351562 -21.179688 L 2.238281 -21.179688 Z M 2.238281 0 "/></g></g></g><g fill="#ffffff" fill-opacity="1"><g transform="translate(264.895954, 84.822814)"><g><path d="M 2.238281 0 L 8.351562 0 L 8.351562 -21.179688 L 2.238281 -21.179688 Z M 2.238281 0 "/></g></g></g><g fill="#ffffff" fill-opacity="1"><g transform="translate(275.482613, 84.822814)"><g><path d="M 2.238281 0 L 8.289062 0 L 8.289062 -10.800781 L 16.339844 0 L 21.300781 0 L 21.300781 -21.179688 L 15.28125 -21.179688 L 15.28125 -10.4375 L 7.230469 -21.179688 L 2.238281 -21.179688 Z M 2.238281 0 "/></g></g></g><g fill="#ffffff" fill-opacity="1"><g transform="translate(299.045498, 84.822814)"><g><path d="M 2.238281 0 L 17.09375 0 L 17.09375 -4.992188 L 8.289062 -4.992188 L 8.289062 -8.261719 L 15.945312 -8.261719 L 15.945312 -13.164062 L 8.289062 -13.164062 L 8.289062 -16.25 L 16.761719 -16.25 L 16.761719 -21.179688 L 2.238281 -21.179688 Z M 2.238281 0 "/></g></g></g></svg>