<svg xmlns="http://www.w3.org/2000/svg" xmlns:xlink="http://www.w3.org/1999/xlink" width="400" zoomAndPan="magnify" viewBox="0 0 300 112.499997" height="150" preserveAspectRatio="xMidYMid meet" version="1.0"><defs><g/><clipPath id="d254bb7dc5"><path d="M 146.210938 21.511719 L 288.070312 21.511719 L 288.070312 84.230469 L 146.210938 84.230469 Z M 146.210938 21.511719 " clip-rule="nonzero"/></clipPath><clipPath id="6ea36d4242"><path d="M 15.1875 21.511719 L 147.75 21.511719 L 147.75 84.191406 L 15.1875 84.191406 Z M 15.1875 21.511719 " clip-rule="nonzero"/></clipPath><clipPath id="4983a3736f"><path d="M 15.191406 21.511719 L 148.089844 21.511719 L 148.089844 84.230469 L 15.191406 84.230469 Z M 15.191406 21.511719 " clip-rule="nonzero"/></clipPath></defs><g clip-path="url(#d254bb7dc5)"><path stroke-linecap="butt" transform="matrix(0.746374, 0, 0, 0.747237, 146.20993, 21.510239)" fill="none" stroke-linejoin="miter" d="M 0.00134989 0.00198093 L 190.065963 0.00198093 L 190.065963 83.936153 L 0.00134989 83.936153 L 0.00134989 0.00198093 " stroke="#c3073f" stroke-width="8" stroke-opacity="1" stroke-miterlimit="4"/></g><g clip-path="url(#6ea36d4242)"><path fill="#c3073f" d="M 15.1875 21.511719 L 148.5 21.511719 L 148.5 84.835938 L 15.1875 84.835938 Z M 15.1875 21.511719 " fill-opacity="1" fill-rule="nonzero"/></g><g clip-path="url(#4983a3736f)"><path stroke-linecap="butt" transform="matrix(0.748653, 0, 0, 0.747237, 15.192721, 21.510239)" fill="none" stroke-linejoin="miter" d="M -0.0017555 0.00198093 L 177.515019 0.00198093 L 177.515019 83.936161 L -0.0017555 83.936161 L -0.0017555 0.00198093 " stroke="#c3073f" stroke-width="8" stroke-opacity="1" stroke-miterlimit="4"/></g><g fill="#ffffff" fill-opacity="1"><g transform="translate(27.839399, 62.616122)"><g><path d="M 0.511719 0 L 3.339844 0 L 5.265625 -4.78125 L 15.523438 -4.78125 L 17.507812 0 L 20.304688 0 L 11.640625 -21.058594 L 9.175781 -21.058594 Z M 6.285156 -7.25 L 10.40625 -17.355469 L 14.53125 -7.25 Z M 6.285156 -7.25 "/></g></g></g><g fill="#ffffff" fill-opacity="1"><g transform="translate(50.935166, 62.616122)"><g><path d="M 3.066406 0 L 5.683594 0 L 5.683594 -16.484375 L 17.328125 0 L 19.792969 0 L 19.792969 -21.058594 L 17.207031 -21.058594 L 17.207031 -4.574219 L 5.566406 -21.058594 L 3.066406 -21.058594 Z M 3.066406 0 "/></g></g></g><g fill="#ffffff" fill-opacity="1"><g transform="translate(76.075789, 62.616122)"><g><path d="M 3.066406 0 L 5.714844 0 L 5.714844 -21.058594 L 3.066406 -21.058594 Z M 3.066406 0 "/></g></g></g><g fill="#ffffff" fill-opacity="1"><g transform="translate(87.142993, 62.616122)"><g><path d="M 3.066406 0 L 5.714844 0 L 5.714844 -16.125 L 12.695312 -5.59375 L 14.859375 -5.59375 L 21.839844 -16.09375 L 21.839844 0 L 24.488281 0 L 24.488281 -21.058594 L 22.019531 -21.058594 L 13.808594 -8.574219 L 5.535156 -21.058594 L 3.066406 -21.058594 Z M 3.066406 0 "/></g></g></g><g fill="#ffffff" fill-opacity="1"><g transform="translate(116.974755, 62.616122)"><g><path d="M 3.066406 0 L 16.183594 0 L 16.183594 -2.464844 L 5.714844 -2.464844 L 5.714844 -9.503906 L 15.101562 -9.503906 L 15.101562 -11.941406 L 5.714844 -11.941406 L 5.714844 -18.589844 L 15.851562 -18.589844 L 15.851562 -21.058594 L 3.066406 -21.058594 Z M 3.066406 0 "/></g></g></g><g fill="#ffffff" fill-opacity="1"><g transform="translate(157.993191, 62.677073)"><g><path d="M 12.484375 0.453125 C 19.191406 0.453125 23.941406 -4.089844 23.941406 -10.527344 C 23.941406 -16.964844 19.191406 -21.507812 12.484375 -21.507812 C 5.773438 -21.507812 1.023438 -16.964844 1.023438 -10.527344 C 1.023438 -4.089844 5.773438 0.453125 12.484375 0.453125 Z M 7.1875 -10.527344 C 7.1875 -13.6875 9.382812 -15.882812 12.484375 -15.882812 C 15.609375 -15.882812 17.777344 -13.6875 17.777344 -10.527344 C 17.777344 -7.371094 15.609375 -5.171875 12.484375 -5.171875 C 9.382812 -5.171875 7.1875 -7.371094 7.1875 -10.527344 Z M 7.1875 -10.527344 "/></g></g></g><g fill="#ffffff" fill-opacity="1"><g transform="translate(182.981226, 62.677073)"><g><path d="M 2.226562 0 L 8.242188 0 L 8.242188 -10.738281 L 16.242188 0 L 21.175781 0 L 21.175781 -21.054688 L 15.191406 -21.054688 L 15.191406 -10.378906 L 7.1875 -21.054688 L 2.226562 -21.054688 Z M 2.226562 0 "/></g></g></g><g fill="#ffffff" fill-opacity="1"><g transform="translate(206.405625, 62.677073)"><g><path d="M 2.226562 0 L 16.902344 0 L 16.902344 -5.625 L 8.300781 -5.625 L 8.300781 -21.054688 L 2.226562 -21.054688 Z M 2.226562 0 "/></g></g></g><g fill="#ffffff" fill-opacity="1"><g transform="translate(224.056616, 62.677073)"><g><path d="M 2.226562 0 L 8.300781 0 L 8.300781 -21.054688 L 2.226562 -21.054688 Z M 2.226562 0 "/></g></g></g><g fill="#ffffff" fill-opacity="1"><g transform="translate(234.581058, 62.677073)"><g><path d="M 2.226562 0 L 8.242188 0 L 8.242188 -10.738281 L 16.242188 0 L 21.175781 0 L 21.175781 -21.054688 L 15.191406 -21.054688 L 15.191406 -10.378906 L 7.1875 -21.054688 L 2.226562 -21.054688 Z M 2.226562 0 "/></g></g></g><g fill="#ffffff" fill-opacity="1"><g transform="translate(258.005457, 62.677073)"><g><path d="M 2.226562 0 L 16.996094 0 L 16.996094 -4.964844 L 8.242188 -4.964844 L 8.242188 -8.210938 L 15.851562 -8.210938 L 15.851562 -13.085938 L 8.242188 -13.085938 L 8.242188 -16.152344 L 16.664062 -16.152344 L 16.664062 -21.054688 L 2.226562 -21.054688 Z M 2.226562 0 "/></g></g></g></svg>