<svg xmlns="http://www.w3.org/2000/svg" xmlns:xlink="http://www.w3.org/1999/xlink" width="500" zoomAndPan="magnify" viewBox="0 0 375 149.999998" height="200" preserveAspectRatio="xMidYMid meet" version="1.0"><defs><g/><clipPath id="480e350054"><path d="M 185.765625 43.476562 L 328.265625 43.476562 L 328.265625 106.476562 L 185.765625 106.476562 Z M 185.765625 43.476562 " clip-rule="nonzero"/></clipPath><clipPath id="4a440c61c9"><path d="M 53.980469 43.476562 L 187.320312 43.476562 L 187.320312 106.523438 L 53.980469 106.523438 Z M 53.980469 43.476562 " clip-rule="nonzero"/></clipPath><clipPath id="f97816b7ba"><path d="M 53.980469 43.476562 L 187.480469 43.476562 L 187.480469 106.476562 L 53.980469 106.476562 Z M 53.980469 43.476562 " clip-rule="nonzero"/></clipPath></defs><g clip-path="url(#480e350054)"><path stroke-linecap="butt" transform="matrix(0.748645, 0, 0, 0.749442, 185.767521, 43.476707)" fill="none" stroke-linejoin="miter" d="M -0.00253269 -0.000193429 L 190.34123 -0.000193429 L 190.34123 84.062316 L -0.00253269 84.062316 L -0.00253269 -0.000193429 " stroke="#c3073f" stroke-width="10" stroke-opacity="1" stroke-miterlimit="4"/></g><g clip-path="url(#4a440c61c9)"><path fill="#c3073f" d="M 53.980469 43.476562 L 188.078125 43.476562 L 188.078125 107.171875 L 53.980469 107.171875 Z M 53.980469 43.476562 " fill-opacity="1" fill-rule="nonzero"/></g><g clip-path="url(#f97816b7ba)"><path stroke-linecap="butt" transform="matrix(0.750923, 0, 0, 0.749442, 53.982396, 43.476086)" fill="none" stroke-linejoin="miter" d="M -0.00256648 0.000635988 L 177.77869 0.000635988 L 177.77869 84.063146 L -0.00256648 84.063146 L -0.00256648 0.000635988 " stroke="#c3073f" stroke-width="8" stroke-opacity="1" stroke-miterlimit="4"/></g><g fill="#ffffff" fill-opacity="1"><g transform="translate(66.70858, 84.822814)"><g><path d="M 0.515625 0 L 3.359375 0 L 5.296875 -4.8125 L 15.613281 -4.8125 L 17.609375 0 L 20.425781 0 L 11.710938 -21.179688 L 9.230469 -21.179688 Z M 6.324219 -7.292969 L 10.46875 -17.457031 L 14.613281 -7.292969 Z M 6.324219 -7.292969 "/></g></g></g><g fill="#ffffff" fill-opacity="1"><g transform="translate(89.939665, 84.822814)"><g><path d="M 3.085938 0 L 5.71875 0 L 5.71875 -16.582031 L 17.429688 0 L 19.910156 0 L 19.910156 -21.179688 L 17.308594 -21.179688 L 17.308594 -4.597656 L 5.597656 -21.179688 L 3.085938 -21.179688 Z M 3.085938 0 "/></g></g></g><g fill="#ffffff" fill-opacity="1"><g transform="translate(115.227587, 84.822814)"><g><path d="M 3.085938 0 L 5.75 0 L 5.75 -21.179688 L 3.085938 -21.179688 Z M 3.085938 0 "/></g></g></g><g fill="#ffffff" fill-opacity="1"><g transform="translate(126.359634, 84.822814)"><g><path d="M 3.085938 0 L 5.75 0 L 5.75 -16.21875 L 12.769531 -5.628906 L 14.949219 -5.628906 L 21.96875 -16.1875 L 21.96875 0 L 24.628906 0 L 24.628906 -21.179688 L 22.148438 -21.179688 L 13.886719 -8.625 L 5.566406 -21.179688 L 3.085938 -21.179688 Z M 3.085938 0 "/></g></g></g><g fill="#ffffff" fill-opacity="1"><g transform="translate(156.366181, 84.822814)"><g><path d="M 3.085938 0 L 16.277344 0 L 16.277344 -2.480469 L 5.75 -2.480469 L 5.75 -9.5625 L 15.1875 -9.5625 L 15.1875 -12.011719 L 5.75 -12.011719 L 5.75 -18.699219 L 15.945312 -18.699219 L 15.945312 -21.179688 L 3.085938 -21.179688 Z M 3.085938 0 "/></g></g></g><g fill="#ffffff" fill-opacity="1"><g transform="translate(197.624962, 84.884114)"><g><path d="M 12.554688 0.453125 C 19.300781 0.453125 24.082031 -4.113281 24.082031 -10.589844 C 24.082031 -17.0625 19.300781 -21.632812 12.554688 -21.632812 C 5.808594 -21.632812 1.027344 -17.0625 1.027344 -10.589844 C 1.027344 -4.113281 5.808594 0.453125 12.554688 0.453125 Z M 7.230469 -10.589844 C 7.230469 -13.765625 9.441406 -15.976562 12.554688 -15.976562 C 15.703125 -15.976562 17.878906 -13.765625 17.878906 -10.589844 C 17.878906 -7.414062 15.703125 -5.203125 12.554688 -5.203125 C 9.441406 -5.203125 7.230469 -7.414062 7.230469 -10.589844 Z M 7.230469 -10.589844 "/></g></g></g><g fill="#ffffff" fill-opacity="1"><g transform="translate(222.759403, 84.884114)"><g><path d="M 2.238281 0 L 8.289062 0 L 8.289062 -10.800781 L 16.335938 0 L 21.300781 0 L 21.300781 -21.179688 L 15.277344 -21.179688 L 15.277344 -10.4375 L 7.230469 -21.179688 L 2.238281 -21.179688 Z M 2.238281 0 "/></g></g></g><g fill="#ffffff" fill-opacity="1"><g transform="translate(246.321047, 84.884114)"><g><path d="M 2.238281 0 L 17.003906 0 L 17.003906 -5.65625 L 8.351562 -5.65625 L 8.351562 -21.179688 L 2.238281 -21.179688 Z M 2.238281 0 "/></g></g></g><g fill="#ffffff" fill-opacity="1"><g transform="translate(264.075455, 84.884114)"><g><path d="M 2.238281 0 L 8.351562 0 L 8.351562 -21.179688 L 2.238281 -21.179688 Z M 2.238281 0 "/></g></g></g><g fill="#ffffff" fill-opacity="1"><g transform="translate(274.66156, 84.884114)"><g><path d="M 2.238281 0 L 8.289062 0 L 8.289062 -10.800781 L 16.335938 0 L 21.300781 0 L 21.300781 -21.179688 L 15.277344 -21.179688 L 15.277344 -10.4375 L 7.230469 -21.179688 L 2.238281 -21.179688 Z M 2.238281 0 "/></g></g></g><g fill="#ffffff" fill-opacity="1"><g transform="translate(298.223204, 84.884114)"><g><path d="M 2.238281 0 L 17.09375 0 L 17.09375 -4.992188 L 8.289062 -4.992188 L 8.289062 -8.257812 L 15.945312 -8.257812 L 15.945312 -13.160156 L 8.289062 -13.160156 L 8.289062 -16.246094 L 16.761719 -16.246094 L 16.761719 -21.179688 L 2.238281 -21.179688 Z M 2.238281 0 "/></g></g></g></svg>