<svg xmlns="http://www.w3.org/2000/svg" xmlns:xlink="http://www.w3.org/1999/xlink" width="100" zoomAndPan="magnify" viewBox="0 0 75 74.999997" height="100" preserveAspectRatio="xMidYMid meet" version="1.0"><defs><g/><clipPath id="8f066f3c23"><path d="M 2.539062 16.558594 L 44.539062 16.558594 L 44.539062 58.558594 L 2.539062 58.558594 Z M 2.539062 16.558594 " clip-rule="nonzero"/></clipPath><clipPath id="2d6f336ef4"><path d="M 24.570312 16.558594 L 54 16.558594 L 54 58.558594 L 24.570312 58.558594 Z M 24.570312 16.558594 " clip-rule="nonzero"/></clipPath><clipPath id="39936754d6"><path d="M 33 16.558594 L 64 16.558594 L 64 58.558594 L 33 58.558594 Z M 33 16.558594 " clip-rule="nonzero"/></clipPath><clipPath id="ac5b44b1d6"><path d="M 43 16.558594 L 72.570312 16.558594 L 72.570312 58.558594 L 43 58.558594 Z M 43 16.558594 " clip-rule="nonzero"/></clipPath></defs><g clip-path="url(#8f066f3c23)"><path fill="#e1ecef" d="M 23.539062 16.558594 C 11.9375 16.558594 2.539062 25.957031 2.539062 37.558594 C 2.539062 49.160156 11.9375 58.558594 23.539062 58.558594 C 35.140625 58.558594 44.539062 49.160156 44.539062 37.558594 C 44.539062 25.957031 35.140625 16.558594 23.539062 16.558594 Z M 23.539062 54.359375 C 14.257812 54.359375 6.738281 46.839844 6.738281 37.558594 C 6.738281 28.277344 14.257812 20.757812 23.539062 20.757812 C 32.820312 20.757812 40.339844 28.277344 40.339844 37.558594 C 40.339844 46.839844 32.820312 54.359375 23.539062 54.359375 Z M 23.539062 54.359375 " fill-opacity="1" fill-rule="nonzero"/></g><g clip-path="url(#2d6f336ef4)"><path fill="#e1ecef" d="M 24.605469 16.609375 L 24.570312 58.492188 L 53.636719 37.59375 Z M 24.605469 16.609375 " fill-opacity="1" fill-rule="nonzero"/></g><g clip-path="url(#39936754d6)"><path fill="#e1ecef" d="M 34.378906 17.222656 L 62.5625 37.59375 L 34.359375 57.863281 L 34.378906 17.222656 M 34.378906 16.558594 C 34.277344 16.558594 34.179688 16.574219 34.078125 16.625 C 33.863281 16.742188 33.714844 16.972656 33.714844 17.222656 L 33.695312 57.863281 C 33.695312 58.109375 33.828125 58.34375 34.0625 58.460938 C 34.160156 58.507812 34.261719 58.527344 34.359375 58.527344 C 34.492188 58.527344 34.625 58.476562 34.742188 58.394531 L 62.945312 38.125 C 63.113281 37.992188 63.226562 37.792969 63.226562 37.59375 C 63.226562 37.375 63.128906 37.175781 62.945312 37.0625 L 34.773438 16.691406 C 34.660156 16.609375 34.527344 16.558594 34.378906 16.558594 Z M 34.378906 16.558594 " fill-opacity="1" fill-rule="nonzero"/></g><g clip-path="url(#ac5b44b1d6)"><path fill="#e1ecef" d="M 43.734375 17.257812 L 71.90625 37.625 L 43.699219 57.894531 L 43.734375 17.257812 M 43.734375 16.59375 C 43.632812 16.59375 43.535156 16.609375 43.433594 16.660156 C 43.21875 16.773438 43.070312 17.007812 43.070312 17.257812 L 43.039062 57.894531 C 43.039062 58.144531 43.171875 58.375 43.402344 58.492188 C 43.5 58.542969 43.601562 58.558594 43.699219 58.558594 C 43.832031 58.558594 43.964844 58.507812 44.082031 58.425781 L 72.285156 38.15625 C 72.453125 38.023438 72.566406 37.824219 72.566406 37.625 C 72.566406 37.410156 72.46875 37.210938 72.285156 37.09375 L 44.132812 16.726562 C 44.015625 16.640625 43.867188 16.59375 43.734375 16.59375 Z M 43.734375 16.59375 " fill-opacity="1" fill-rule="nonzero"/></g><g fill="#ffffff" fill-opacity="1"><g transform="translate(11.638005, 41.694847)"><g><path d="M 7.65625 -13.1875 L 12.984375 0 L 9.75 0 L 8.78125 -2.640625 L 3.75 -2.640625 L 2.78125 0 L -0.453125 0 L 4.875 -13.1875 Z M 7.75 -5.28125 L 6.28125 -9.109375 L 6.25 -9.109375 L 4.78125 -5.28125 Z M 7.75 -5.28125 "/></g></g></g><g fill="#ffffff" fill-opacity="1"><g transform="translate(24.165379, 41.694847)"><g><path d="M 0.953125 0 L 0.953125 -8.203125 L 3.78125 -8.203125 L 3.78125 -7.34375 L 3.8125 -7.34375 C 4.550781 -8.070312 5.335938 -8.4375 6.171875 -8.4375 C 6.578125 -8.4375 6.976562 -8.382812 7.375 -8.28125 C 7.769531 -8.175781 8.148438 -8.007812 8.515625 -7.78125 C 8.890625 -7.5625 9.191406 -7.242188 9.421875 -6.828125 C 9.648438 -6.421875 9.765625 -5.945312 9.765625 -5.40625 L 9.765625 0 L 6.9375 0 L 6.9375 -4.640625 C 6.9375 -5.066406 6.800781 -5.4375 6.53125 -5.75 C 6.257812 -6.070312 5.90625 -6.234375 5.46875 -6.234375 C 5.039062 -6.234375 4.648438 -6.066406 4.296875 -5.734375 C 3.953125 -5.410156 3.78125 -5.046875 3.78125 -4.640625 L 3.78125 0 Z M 0.953125 0 "/></g></g></g><g fill="#ffffff" fill-opacity="1"><g transform="translate(34.727359, 41.694847)"><g><path d="M 1.21875 -12.765625 C 1.550781 -13.097656 1.945312 -13.265625 2.40625 -13.265625 C 2.863281 -13.265625 3.257812 -13.097656 3.59375 -12.765625 C 3.925781 -12.441406 4.09375 -12.050781 4.09375 -11.59375 C 4.09375 -11.132812 3.925781 -10.738281 3.59375 -10.40625 C 3.257812 -10.070312 2.863281 -9.90625 2.40625 -9.90625 C 1.945312 -9.90625 1.550781 -10.070312 1.21875 -10.40625 C 0.894531 -10.738281 0.734375 -11.132812 0.734375 -11.59375 C 0.734375 -12.050781 0.894531 -12.441406 1.21875 -12.765625 Z M 0.953125 -8.203125 L 0.953125 0 L 3.78125 0 L 3.78125 -8.203125 Z M 0.953125 -8.203125 "/></g></g></g><g fill="#ff9a00" fill-opacity="1"><g transform="translate(39.550605, 41.694847)"><g><path d="M 12.890625 -7.390625 L 12.890625 -4.53125 C 12.546875 -2.957031 11.796875 -1.769531 10.640625 -0.96875 C 9.492188 -0.164062 8.210938 0.234375 6.796875 0.234375 C 5.015625 0.234375 3.5 -0.425781 2.25 -1.75 C 1 -3.082031 0.375 -4.691406 0.375 -6.578125 C 0.375 -8.503906 0.984375 -10.125 2.203125 -11.4375 C 3.429688 -12.757812 4.960938 -13.421875 6.796875 -13.421875 C 8.929688 -13.421875 10.625 -12.671875 11.875 -11.171875 L 9.90625 -9.015625 C 9.207031 -10.140625 8.226562 -10.703125 6.96875 -10.703125 C 6.039062 -10.703125 5.25 -10.300781 4.59375 -9.5 C 3.9375 -8.695312 3.609375 -7.722656 3.609375 -6.578125 C 3.609375 -5.460938 3.9375 -4.507812 4.59375 -3.71875 C 5.25 -2.925781 6.039062 -2.53125 6.96875 -2.53125 C 7.738281 -2.53125 8.40625 -2.757812 8.96875 -3.21875 C 9.539062 -3.6875 9.828125 -4.300781 9.828125 -5.0625 L 6.796875 -5.0625 L 6.796875 -7.390625 Z M 12.890625 -7.390625 "/></g></g></g><g fill="#ff9a00" fill-opacity="1"><g transform="translate(52.797022, 41.694847)"><g><path d="M 1.734375 -0.96875 C 0.828125 -1.78125 0.375 -2.820312 0.375 -4.09375 C 0.375 -5.363281 0.847656 -6.40625 1.796875 -7.21875 C 2.742188 -8.03125 3.914062 -8.4375 5.3125 -8.4375 C 6.6875 -8.4375 7.84375 -8.023438 8.78125 -7.203125 C 9.726562 -6.390625 10.203125 -5.351562 10.203125 -4.09375 C 10.203125 -2.832031 9.738281 -1.796875 8.8125 -0.984375 C 7.894531 -0.171875 6.726562 0.234375 5.3125 0.234375 C 3.832031 0.234375 2.640625 -0.164062 1.734375 -0.96875 Z M 3.921875 -5.484375 C 3.554688 -5.117188 3.375 -4.65625 3.375 -4.09375 C 3.375 -3.53125 3.546875 -3.066406 3.890625 -2.703125 C 4.242188 -2.347656 4.710938 -2.171875 5.296875 -2.171875 C 5.847656 -2.171875 6.300781 -2.351562 6.65625 -2.71875 C 7.007812 -3.082031 7.1875 -3.539062 7.1875 -4.09375 C 7.1875 -4.65625 7.003906 -5.117188 6.640625 -5.484375 C 6.273438 -5.847656 5.828125 -6.03125 5.296875 -6.03125 C 4.742188 -6.03125 4.285156 -5.847656 3.921875 -5.484375 Z M 3.921875 -5.484375 "/></g></g></g><g fill="#ff9a00" fill-opacity="1"><g transform="translate(49.991709, 39.599996)"><g><path d="M 1.390625 -1.71875 C 1.648438 -1.71875 1.867188 -1.625 2.046875 -1.4375 C 2.222656 -1.257812 2.3125 -1.046875 2.3125 -0.796875 C 2.3125 -0.546875 2.222656 -0.328125 2.046875 -0.140625 C 1.867188 0.0351562 1.648438 0.125 1.390625 0.125 C 1.140625 0.125 0.925781 0.0351562 0.75 -0.140625 C 0.570312 -0.328125 0.484375 -0.546875 0.484375 -0.796875 C 0.484375 -1.046875 0.570312 -1.257812 0.75 -1.4375 C 0.925781 -1.625 1.140625 -1.71875 1.390625 -1.71875 Z M 1.390625 -1.71875 "/></g></g></g></svg>