<svg width="200" height="41" viewBox="0 0 200 41" fill="none" xmlns="http://www.w3.org/2000/svg">
<rect x="1" y="1" width="198" height="39" stroke="#C3073F" stroke-width="2"/>
<rect width="100" height="41" fill="#C3073F"/>
<path d="M20.358 27H18.5114L23.8523 12.4545H25.6705L31.0114 27H29.1648L24.8182 14.7557H24.7045L20.358 27ZM21.0398 21.3182H28.483V22.8807H21.0398V21.3182ZM44.8111 12.4545V27H43.1065L35.1804 15.5795H35.0384V27H33.277V12.4545H34.9815L42.9361 23.9034H43.0781V12.4545H44.8111ZM50.0969 12.4545V27H48.3356V12.4545H50.0969ZM53.6286 12.4545H55.7308L60.674 24.5284H60.8445L65.7876 12.4545H67.8899V27H66.2422V15.9489H66.1001L61.5547 27H59.9638L55.4183 15.9489H55.2763V27H53.6286V12.4545ZM71.4215 27V12.4545H80.1999V14.017H73.1829V18.9318H79.7454V20.4943H73.1829V25.4375H80.3136V27H71.4215Z" fill="white"/>
<path d="M126.631 19.7273C126.631 21.3134 126.33 22.6629 125.729 23.7756C125.132 24.8883 124.318 25.7382 123.286 26.3253C122.258 26.9077 121.103 27.1989 119.82 27.1989C118.527 27.1989 117.367 26.9053 116.339 26.3182C115.312 25.7311 114.5 24.8812 113.903 23.7685C113.307 22.6558 113.009 21.3087 113.009 19.7273C113.009 18.1411 113.307 16.7917 113.903 15.679C114.5 14.5663 115.312 13.7187 116.339 13.1364C117.367 12.5492 118.527 12.2557 119.82 12.2557C121.103 12.2557 122.258 12.5492 123.286 13.1364C124.318 13.7187 125.132 14.5663 125.729 15.679C126.33 16.7917 126.631 18.1411 126.631 19.7273ZM123.513 19.7273C123.513 18.6998 123.359 17.8333 123.051 17.1278C122.748 16.4223 122.32 15.8873 121.766 15.5227C121.212 15.1581 120.563 14.9759 119.82 14.9759C119.076 14.9759 118.428 15.1581 117.874 15.5227C117.32 15.8873 116.889 16.4223 116.581 17.1278C116.278 17.8333 116.126 18.6998 116.126 19.7273C116.126 20.7547 116.278 21.6212 116.581 22.3267C116.889 23.0322 117.32 23.5672 117.874 23.9318C118.428 24.2964 119.076 24.4787 119.82 24.4787C120.563 24.4787 121.212 24.2964 121.766 23.9318C122.32 23.5672 122.748 23.0322 123.051 22.3267C123.359 21.6212 123.513 20.7547 123.513 19.7273ZM141.075 12.4545V27H138.419L132.091 17.8452H131.984V27H128.909V12.4545H131.608L137.886 21.6023H138.014V12.4545H141.075ZM143.616 27V12.4545H146.691V24.4645H152.927V27H143.616ZM158.039 12.4545V27H154.963V12.4545H158.039ZM172.735 12.4545V27H170.079L163.751 17.8452H163.644V27H160.569V12.4545H163.268L169.546 21.6023H169.674V12.4545H172.735ZM175.276 27V12.4545H185.077V14.9901H178.351V18.456H184.573V20.9915H178.351V24.4645H185.105V27H175.276Z" fill="white"/>
</svg>
